<svg width="30" height="30" viewBox="0 0 30 30" fill="none" xmlns="http://www.w3.org/2000/svg">
<path d="M6.1582 11.8711C6.60938 10.5938 7.3418 9.39258 8.37305 8.36719C12.0352 4.70508 17.9707 4.70508 21.6328 8.36719L22.6348 9.375H19.6875C18.6504 9.375 17.8125 10.2129 17.8125 11.25C17.8125 12.2871 18.6504 13.125 19.6875 13.125H27.1582H27.1816C28.2188 13.125 29.0566 12.2871 29.0566 11.25V3.75C29.0566 2.71289 28.2188 1.875 27.1816 1.875C26.1445 1.875 25.3066 2.71289 25.3066 3.75V6.75L24.2812 5.71875C19.1543 0.591797 10.8457 0.591797 5.71875 5.71875C4.28906 7.14844 3.25781 8.83008 2.625 10.6289C2.2793 11.6074 2.79492 12.6738 3.76758 13.0195C4.74023 13.3652 5.8125 12.8496 6.1582 11.877V11.8711ZM2.28516 16.9512C1.99219 17.0391 1.71094 17.1973 1.48242 17.4316C1.24805 17.666 1.08984 17.9473 1.00781 18.252C0.990234 18.3223 0.972656 18.3984 0.960937 18.4746C0.943359 18.5742 0.9375 18.6738 0.9375 18.7734V26.25C0.9375 27.2871 1.77539 28.125 2.8125 28.125C3.84961 28.125 4.6875 27.2871 4.6875 26.25V23.2559L5.71875 24.2812C10.8457 29.4023 19.1543 29.4023 24.2754 24.2812C25.7051 22.8516 26.7422 21.1699 27.375 19.377C27.7207 18.3984 27.2051 17.332 26.2324 16.9863C25.2598 16.6406 24.1875 17.1562 23.8418 18.1289C23.3906 19.4062 22.6582 20.6074 21.627 21.6328C17.9648 25.2949 12.0293 25.2949 8.36719 21.6328L8.36133 21.627L7.35938 20.625H10.3125C11.3496 20.625 12.1875 19.7871 12.1875 18.75C12.1875 17.7129 11.3496 16.875 10.3125 16.875H2.83594C2.74219 16.875 2.64844 16.8809 2.55469 16.8926C2.46094 16.9043 2.37305 16.9219 2.28516 16.9512Z" fill="#323232"/>
</svg>
