<svg width="30" height="30" viewBox="0 0 30 30" fill="none" xmlns="http://www.w3.org/2000/svg">
<g clip-path="url(#clip0_82_31)">
<path d="M7.5 0H11.25C12.2871 0 13.125 0.837891 13.125 1.875V7.5H5.625V1.875C5.625 0.837891 6.46289 0 7.5 0ZM0 15C0 11.8945 2.51953 9.375 5.625 9.375H13.125C16.2305 9.375 18.75 11.8945 18.75 15V27.1875C18.75 28.7402 17.4902 30 15.9375 30H2.8125C1.25977 30 0 28.7402 0 27.1875V15ZM14.0625 19.6875C14.0625 18.4443 13.5686 17.252 12.6896 16.3729C11.8105 15.4939 10.6182 15 9.375 15C8.1318 15 6.93951 15.4939 6.06044 16.3729C5.18136 17.252 4.6875 18.4443 4.6875 19.6875C4.6875 20.9307 5.18136 22.123 6.06044 23.0021C6.93951 23.8811 8.1318 24.375 9.375 24.375C10.6182 24.375 11.8105 23.8811 12.6896 23.0021C13.5686 22.123 14.0625 20.9307 14.0625 19.6875ZM15 3.75C15 3.25272 15.1975 2.77581 15.5492 2.42417C15.9008 2.07254 16.3777 1.875 16.875 1.875C17.3723 1.875 17.8492 2.07254 18.2008 2.42417C18.5525 2.77581 18.75 3.25272 18.75 3.75C18.75 4.24728 18.5525 4.72419 18.2008 5.07583C17.8492 5.42746 17.3723 5.625 16.875 5.625C16.3777 5.625 15.9008 5.42746 15.5492 5.07583C15.1975 4.72419 15 4.24728 15 3.75ZM22.5 1.875C22.9973 1.875 23.4742 2.07254 23.8258 2.42417C24.1775 2.77581 24.375 3.25272 24.375 3.75C24.375 4.24728 24.1775 4.72419 23.8258 5.07583C23.4742 5.42746 22.9973 5.625 22.5 5.625C22.0027 5.625 21.5258 5.42746 21.1742 5.07583C20.8225 4.72419 20.625 4.24728 20.625 3.75C20.625 3.25272 20.8225 2.77581 21.1742 2.42417C21.5258 2.07254 22.0027 1.875 22.5 1.875ZM26.25 3.75C26.25 3.25272 26.4475 2.77581 26.7992 2.42417C27.1508 2.07254 27.6277 1.875 28.125 1.875C28.6223 1.875 29.0992 2.07254 29.4508 2.42417C29.8025 2.77581 30 3.25272 30 3.75C30 4.24728 29.8025 4.72419 29.4508 5.07583C29.0992 5.42746 28.6223 5.625 28.125 5.625C27.6277 5.625 27.1508 5.42746 26.7992 5.07583C26.4475 4.72419 26.25 4.24728 26.25 3.75ZM28.125 7.5C28.6223 7.5 29.0992 7.69754 29.4508 8.04918C29.8025 8.40081 30 8.87772 30 9.375C30 9.87228 29.8025 10.3492 29.4508 10.7008C29.0992 11.0525 28.6223 11.25 28.125 11.25C27.6277 11.25 27.1508 11.0525 26.7992 10.7008C26.4475 10.3492 26.25 9.87228 26.25 9.375C26.25 8.87772 26.4475 8.40081 26.7992 8.04918C27.1508 7.69754 27.6277 7.5 28.125 7.5ZM26.25 15C26.25 14.5027 26.4475 14.0258 26.7992 13.6742C27.1508 13.3225 27.6277 13.125 28.125 13.125C28.6223 13.125 29.0992 13.3225 29.4508 13.6742C29.8025 14.0258 30 14.5027 30 15C30 15.4973 29.8025 15.9742 29.4508 16.3258C29.0992 16.6775 28.6223 16.875 28.125 16.875C27.6277 16.875 27.1508 16.6775 26.7992 16.3258C26.4475 15.9742 26.25 15.4973 26.25 15ZM22.5 7.5C22.9973 7.5 23.4742 7.69754 23.8258 8.04918C24.1775 8.40081 24.375 8.87772 24.375 9.375C24.375 9.87228 24.1775 10.3492 23.8258 10.7008C23.4742 11.0525 22.9973 11.25 22.5 11.25C22.0027 11.25 21.5258 11.0525 21.1742 10.7008C20.8225 10.3492 20.625 9.87228 20.625 9.375C20.625 8.87772 20.8225 8.40081 21.1742 8.04918C21.5258 7.69754 22.0027 7.5 22.5 7.5Z" fill="#FF7171"/>
</g>
<defs>
<clipPath id="clip0_82_31">
<rect width="30" height="30" fill="white"/>
</clipPath>
</defs>
</svg>
