<svg width="40" height="30" viewBox="0 0 40 30" fill="none" xmlns="http://www.w3.org/2000/svg">
<g clip-path="url(#clip0_82_37)">
<path d="M3 0C1.34375 0 0 1.25977 0 2.8125V21.5625C0 23.1152 1.34375 24.375 3 24.375H4C4 27.4805 6.6875 30 10 30C13.3125 30 16 27.4805 16 24.375H24C24 27.4805 26.6875 30 30 30C33.3125 30 36 27.4805 36 24.375H38C39.1063 24.375 40 23.5371 40 22.5C40 21.4629 39.1063 20.625 38 20.625V16.875V15V13.9043C38 12.9082 37.5812 11.9531 36.8312 11.25L32 6.7207C31.25 6.01758 30.2313 5.625 29.1688 5.625H26V2.8125C26 1.25977 24.6562 0 23 0H3ZM26 9.375H29.1688L34 13.9043V15H26V9.375ZM7 24.375C7 23.6291 7.31607 22.9137 7.87868 22.3863C8.44129 21.8588 9.20435 21.5625 10 21.5625C10.7956 21.5625 11.5587 21.8588 12.1213 22.3863C12.6839 22.9137 13 23.6291 13 24.375C13 25.1209 12.6839 25.8363 12.1213 26.3637C11.5587 26.8912 10.7956 27.1875 10 27.1875C9.20435 27.1875 8.44129 26.8912 7.87868 26.3637C7.31607 25.8363 7 25.1209 7 24.375ZM30 21.5625C30.7956 21.5625 31.5587 21.8588 32.1213 22.3863C32.6839 22.9137 33 23.6291 33 24.375C33 25.1209 32.6839 25.8363 32.1213 26.3637C31.5587 26.8912 30.7956 27.1875 30 27.1875C29.2044 27.1875 28.4413 26.8912 27.8787 26.3637C27.3161 25.8363 27 25.1209 27 24.375C27 23.6291 27.3161 22.9137 27.8787 22.3863C28.4413 21.8588 29.2044 21.5625 30 21.5625Z" fill="#009D9D"/>
</g>
<defs>
<clipPath id="clip0_82_37">
<rect width="40" height="30" fill="white"/>
</clipPath>
</defs>
</svg>
